<svg width="32" height="32" viewBox="0 0 32 32" fill="none" xmlns="http://www.w3.org/2000/svg">
<path d="M0 4C0 1.79086 1.79086 0 4 0H28C30.2091 0 32 1.79086 32 4V28C32 30.2091 30.2091 32 28 32H4C1.79086 32 0 30.2091 0 28V4Z" fill="#F8F5EF"/>
<path fill-rule="evenodd" clip-rule="evenodd" d="M10.459 16.4001C10.459 13.3395 12.9401 10.8584 16.0007 10.8584C19.0612 10.8584 21.5423 13.3395 21.5423 16.4001C21.5423 19.4606 19.0612 21.9417 16.0007 21.9417C12.9401 21.9417 10.459 19.4606 10.459 16.4001ZM16.0007 9.8584C12.3878 9.8584 9.45898 12.7872 9.45898 16.4001C9.45898 20.0129 12.3878 22.9417 16.0007 22.9417C19.6135 22.9417 22.5423 20.0129 22.5423 16.4001C22.5423 12.7872 19.6135 9.8584 16.0007 9.8584ZM16.0007 13.9834C16.0467 13.9834 16.084 13.9461 16.084 13.9001C16.084 13.854 16.0467 13.8167 16.0007 13.8167C15.9546 13.8167 15.9173 13.854 15.9173 13.9001C15.9173 13.9461 15.9546 13.9834 16.0007 13.9834ZM15.084 13.9001C15.084 13.3938 15.4944 12.9834 16.0007 12.9834C16.5069 12.9834 16.9173 13.3938 16.9173 13.9001C16.9173 14.4063 16.5069 14.8167 16.0007 14.8167C15.4944 14.8167 15.084 14.4063 15.084 13.9001ZM16.0007 16.7334C16.2768 16.7334 16.5007 16.9573 16.5007 17.2334V18.9001C16.5007 19.1762 16.2768 19.4001 16.0007 19.4001C15.7245 19.4001 15.5007 19.1762 15.5007 18.9001V17.2334C15.5007 16.9573 15.7245 16.7334 16.0007 16.7334Z" fill="#857854"/>
</svg>
