<svg width="24" height="24" viewBox="0 0 24 24" fill="none" xmlns="http://www.w3.org/2000/svg">
<path d="M0 4C0 1.79086 1.79086 0 4 0H20C22.2091 0 24 1.79086 24 4V20C24 22.2091 22.2091 24 20 24H4C1.79086 24 0 22.2091 0 20V4Z" fill="#F8F5EF"/>
<path fill-rule="evenodd" clip-rule="evenodd" d="M7.23341 8.49974C7.23341 7.43199 8.099 6.56641 9.16675 6.56641H14.8334C15.9012 6.56641 16.7667 7.43199 16.7667 8.49974V16.0831H16.8334C17.2476 16.0831 17.5834 16.4189 17.5834 16.8331C17.5834 17.2473 17.2476 17.5831 16.8334 17.5831H13.5001H10.5001H7.16675C6.75253 17.5831 6.41675 17.2473 6.41675 16.8331C6.41675 16.4189 6.75253 16.0831 7.16675 16.0831H7.23341V8.49974ZM11.2501 16.0831H12.7501V14.4997C12.7501 14.1776 12.4889 13.9164 12.1667 13.9164H11.8334C11.5112 13.9164 11.2501 14.1776 11.2501 14.4997V16.0831ZM14.2501 16.0831V14.4997C14.2501 13.3491 13.3173 12.4164 12.1667 12.4164H11.8334C10.6828 12.4164 9.75008 13.3491 9.75008 14.4997V16.0831H8.43341V8.49974C8.43341 8.09473 8.76174 7.76641 9.16675 7.76641H14.8334C15.2384 7.76641 15.5667 8.09473 15.5667 8.49974V16.0831H14.2501ZM10.6667 10.9331C10.814 10.9331 10.9334 10.8137 10.9334 10.6664C10.9334 10.5191 10.814 10.3997 10.6667 10.3997C10.5195 10.3997 10.4001 10.5191 10.4001 10.6664C10.4001 10.8137 10.5195 10.9331 10.6667 10.9331ZM9.73341 10.6664C9.73341 10.1509 10.1513 9.73307 10.6667 9.73307C11.1822 9.73307 11.6001 10.1509 11.6001 10.6664C11.6001 11.1819 11.1822 11.5997 10.6667 11.5997C10.1513 11.5997 9.73341 11.1819 9.73341 10.6664ZM13.5001 10.6664C13.5001 10.7585 13.4255 10.8331 13.3334 10.8331C13.2414 10.8331 13.1667 10.7585 13.1667 10.6664C13.1667 10.5744 13.2414 10.4997 13.3334 10.4997C13.4255 10.4997 13.5001 10.5744 13.5001 10.6664ZM13.3334 9.83307C12.8732 9.83307 12.5001 10.2062 12.5001 10.6664C12.5001 11.1266 12.8732 11.4997 13.3334 11.4997C13.7937 11.4997 14.1667 11.1266 14.1667 10.6664C14.1667 10.2062 13.7937 9.83307 13.3334 9.83307Z" fill="#857854"/>
</svg>
