<svg width="32" height="32" viewBox="0 0 32 32" fill="none" xmlns="http://www.w3.org/2000/svg">
<path d="M0 4C0 1.79086 1.79086 0 4 0H28C30.2091 0 32 1.79086 32 4V28C32 30.2091 30.2091 32 28 32H4C1.79086 32 0 30.2091 0 28V4Z" fill="#F8F5EF"/>
<path d="M19.125 18.0677C20.8573 18.0677 21.5668 19.8576 21.8532 21.1477C22.0079 21.8444 21.4444 22.4427 20.7307 22.4427H19.9583M18.2917 14.9427C19.5573 14.9427 20.375 13.9167 20.375 12.651C20.375 11.3854 19.5573 10.3594 18.2917 10.3594M17.0153 22.4427H10.8181C10.3477 22.4427 9.97751 22.0524 10.0712 21.5915C10.33 20.3187 11.1753 18.0677 13.9167 18.0677C16.6581 18.0677 17.5033 20.3187 17.7621 21.5915C17.8558 22.0524 17.4857 22.4427 17.0153 22.4427ZM16.2083 12.651C16.2083 13.9167 15.1823 14.9427 13.9167 14.9427C12.651 14.9427 11.625 13.9167 11.625 12.651C11.625 11.3854 12.651 10.3594 13.9167 10.3594C15.1823 10.3594 16.2083 11.3854 16.2083 12.651Z" stroke="#857854" stroke-linecap="round" stroke-linejoin="round"/>
</svg>
